<svg xmlns="http://www.w3.org/2000/svg" version="1.1" xmlns:xlink="http://www.w3.org/1999/xlink" xmlns:svgjs="http://svgjs.com/svgjs" width="1536" height="864" preserveAspectRatio="none" viewBox="0 0 1536 864"><g mask="url(&quot;#SvgjsMask1769&quot;)" fill="none"><rect width="1536" height="864" x="0" y="0" fill="#0e2a47"></rect><path d="M-98.41 661.75L-98.41 661.75" stroke="#132e65" stroke-width="1.5"></path><path d="M-98.41 661.75L71.32 673.24" stroke="#132e65" stroke-width="1.5"></path><path d="M-98.41 661.75L-111.07 834.01" stroke="#132e65" stroke-width="1.5"></path><path d="M-98.41 661.75L82.12 818.28" stroke="#132e65" stroke-width="1.5"></path><path d="M-98.41 661.75L-72.65 961.43" stroke="#132e65" stroke-width="1.5"></path><path d="M-111.07 834.01L-111.07 834.01" stroke="#132e65" stroke-width="1.5"></path><path d="M-111.07 834.01L-72.65 961.43" stroke="#132e65" stroke-width="1.5"></path><path d="M-111.07 834.01L82.12 818.28" stroke="#132e65" stroke-width="1.5"></path><path d="M-72.65 961.43L-72.65 961.43" stroke="#132e65" stroke-width="1.5"></path><path d="M-72.65 961.43L58.7 999.7" stroke="#132e65" stroke-width="1.5"></path><path d="M-72.65 961.43L82.12 818.28" stroke="#132e65" stroke-width="1.5"></path><path d="M71.32 673.24L71.32 673.24" stroke="#132e65" stroke-width="1.5"></path><path d="M71.32 673.24L82.12 818.28" stroke="#132e65" stroke-width="1.5"></path><path d="M71.32 673.24L244.87 708.17" stroke="#132e65" stroke-width="1.5"></path><path d="M71.32 673.24L218.69 556.42" stroke="#132e65" stroke-width="1.5"></path><path d="M71.32 673.24L223.87 823.62" stroke="#132e65" stroke-width="1.5"></path><path d="M71.32 673.24L-111.07 834.01" stroke="#132e65" stroke-width="1.5"></path><path d="M82.12 818.28L82.12 818.28" stroke="#132e65" stroke-width="1.5"></path><path d="M82.12 818.28L223.87 823.62" stroke="#132e65" stroke-width="1.5"></path><path d="M82.12 818.28L58.7 999.7" stroke="#132e65" stroke-width="1.5"></path><path d="M82.12 818.28L244.87 708.17" stroke="#132e65" stroke-width="1.5"></path><path d="M58.7 999.7L58.7 999.7" stroke="#132e65" stroke-width="1.5"></path><path d="M58.7 999.7L241.1 1001.22" stroke="#132e65" stroke-width="1.5"></path><path d="M218.69 556.42L218.69 556.42" stroke="#132e65" stroke-width="1.5"></path><path d="M218.69 556.42L244.87 708.17" stroke="#132e65" stroke-width="1.5"></path><path d="M218.69 556.42L409.03 500.49" stroke="#132e65" stroke-width="1.5"></path><path d="M218.69 556.42L361.77 702.47" stroke="#132e65" stroke-width="1.5"></path><path d="M244.87 708.17L244.87 708.17" stroke="#132e65" stroke-width="1.5"></path><path d="M244.87 708.17L361.77 702.47" stroke="#132e65" stroke-width="1.5"></path><path d="M244.87 708.17L223.87 823.62" stroke="#132e65" stroke-width="1.5"></path><path d="M244.87 708.17L358.83 816.94" stroke="#132e65" stroke-width="1.5"></path><path d="M223.87 823.62L223.87 823.62" stroke="#132e65" stroke-width="1.5"></path><path d="M223.87 823.62L358.83 816.94" stroke="#132e65" stroke-width="1.5"></path><path d="M241.1 1001.22L241.1 1001.22" stroke="#132e65" stroke-width="1.5"></path><path d="M241.1 1001.22L398.49 966.42" stroke="#132e65" stroke-width="1.5"></path><path d="M241.1 1001.22L223.87 823.62" stroke="#132e65" stroke-width="1.5"></path><path d="M409.03 500.49L409.03 500.49" stroke="#132e65" stroke-width="1.5"></path><path d="M409.03 500.49L361.77 702.47" stroke="#132e65" stroke-width="1.5"></path><path d="M361.77 702.47L361.77 702.47" stroke="#132e65" stroke-width="1.5"></path><path d="M361.77 702.47L358.83 816.94" stroke="#132e65" stroke-width="1.5"></path><path d="M358.83 816.94L358.83 816.94" stroke="#132e65" stroke-width="1.5"></path><path d="M358.83 816.94L503.13 853.68" stroke="#132e65" stroke-width="1.5"></path><path d="M358.83 816.94L398.49 966.42" stroke="#132e65" stroke-width="1.5"></path><path d="M358.83 816.94L508.06 967.47" stroke="#132e65" stroke-width="1.5"></path><path d="M398.49 966.42L398.49 966.42" stroke="#132e65" stroke-width="1.5"></path><path d="M398.49 966.42L508.06 967.47" stroke="#132e65" stroke-width="1.5"></path><path d="M398.49 966.42L503.13 853.68" stroke="#132e65" stroke-width="1.5"></path><path d="M552.07 657.29L552.07 657.29" stroke="#132e65" stroke-width="1.5"></path><path d="M552.07 657.29L702.41 646.3" stroke="#132e65" stroke-width="1.5"></path><path d="M552.07 657.29L646.25 799.56" stroke="#132e65" stroke-width="1.5"></path><path d="M552.07 657.29L660.12 515.89" stroke="#132e65" stroke-width="1.5"></path><path d="M552.07 657.29L361.77 702.47" stroke="#132e65" stroke-width="1.5"></path><path d="M552.07 657.29L503.13 853.68" stroke="#132e65" stroke-width="1.5"></path><path d="M552.07 657.29L409.03 500.49" stroke="#132e65" stroke-width="1.5"></path><path d="M503.13 853.68L503.13 853.68" stroke="#132e65" stroke-width="1.5"></path><path d="M503.13 853.68L508.06 967.47" stroke="#132e65" stroke-width="1.5"></path><path d="M508.06 967.47L508.06 967.47" stroke="#132e65" stroke-width="1.5"></path><path d="M508.06 967.47L688.86 975.83" stroke="#132e65" stroke-width="1.5"></path><path d="M508.06 967.47L646.25 799.56" stroke="#132e65" stroke-width="1.5"></path><path d="M508.06 967.47L241.1 1001.22" stroke="#132e65" stroke-width="1.5"></path><path d="M708.97 358.38L708.97 358.38" stroke="#132e65" stroke-width="1.5"></path><path d="M708.97 358.38L854.34 374.97" stroke="#132e65" stroke-width="1.5"></path><path d="M708.97 358.38L824.74 260.4" stroke="#132e65" stroke-width="1.5"></path><path d="M708.97 358.38L660.12 515.89" stroke="#132e65" stroke-width="1.5"></path><path d="M660.12 515.89L660.12 515.89" stroke="#132e65" stroke-width="1.5"></path><path d="M660.12 515.89L702.41 646.3" stroke="#132e65" stroke-width="1.5"></path><path d="M660.12 515.89L860.85 547.33" stroke="#132e65" stroke-width="1.5"></path><path d="M660.12 515.89L820.6 687.25" stroke="#132e65" stroke-width="1.5"></path><path d="M660.12 515.89L854.34 374.97" stroke="#132e65" stroke-width="1.5"></path><path d="M702.41 646.3L702.41 646.3" stroke="#132e65" stroke-width="1.5"></path><path d="M702.41 646.3L820.6 687.25" stroke="#132e65" stroke-width="1.5"></path><path d="M646.25 799.56L646.25 799.56" stroke="#132e65" stroke-width="1.5"></path><path d="M646.25 799.56L503.13 853.68" stroke="#132e65" stroke-width="1.5"></path><path d="M646.25 799.56L702.41 646.3" stroke="#132e65" stroke-width="1.5"></path><path d="M646.25 799.56L688.86 975.83" stroke="#132e65" stroke-width="1.5"></path><path d="M646.25 799.56L835.01 814.34" stroke="#132e65" stroke-width="1.5"></path><path d="M646.25 799.56L820.6 687.25" stroke="#132e65" stroke-width="1.5"></path><path d="M688.86 975.83L688.86 975.83" stroke="#132e65" stroke-width="1.5"></path><path d="M688.86 975.83L788.46 969.56" stroke="#132e65" stroke-width="1.5"></path><path d="M824.74 260.4L824.74 260.4" stroke="#132e65" stroke-width="1.5"></path><path d="M824.74 260.4L854.34 374.97" stroke="#132e65" stroke-width="1.5"></path><path d="M824.74 260.4L974.51 222.39" stroke="#132e65" stroke-width="1.5"></path><path d="M854.34 374.97L854.34 374.97" stroke="#132e65" stroke-width="1.5"></path><path d="M854.34 374.97L941.66 394.26" stroke="#132e65" stroke-width="1.5"></path><path d="M860.85 547.33L860.85 547.33" stroke="#132e65" stroke-width="1.5"></path><path d="M860.85 547.33L987.85 507.19" stroke="#132e65" stroke-width="1.5"></path><path d="M860.85 547.33L820.6 687.25" stroke="#132e65" stroke-width="1.5"></path><path d="M860.85 547.33L854.34 374.97" stroke="#132e65" stroke-width="1.5"></path><path d="M860.85 547.33L941.66 394.26" stroke="#132e65" stroke-width="1.5"></path><path d="M820.6 687.25L820.6 687.25" stroke="#132e65" stroke-width="1.5"></path><path d="M820.6 687.25L835.01 814.34" stroke="#132e65" stroke-width="1.5"></path><path d="M820.6 687.25L957.03 696.02" stroke="#132e65" stroke-width="1.5"></path><path d="M835.01 814.34L835.01 814.34" stroke="#132e65" stroke-width="1.5"></path><path d="M835.01 814.34L788.46 969.56" stroke="#132e65" stroke-width="1.5"></path><path d="M788.46 969.56L788.46 969.56" stroke="#132e65" stroke-width="1.5"></path><path d="M788.46 969.56L972.21 959.95" stroke="#132e65" stroke-width="1.5"></path><path d="M788.46 969.56L646.25 799.56" stroke="#132e65" stroke-width="1.5"></path><path d="M788.46 969.56L508.06 967.47" stroke="#132e65" stroke-width="1.5"></path><path d="M959.72 108.68L959.72 108.68" stroke="#132e65" stroke-width="1.5"></path><path d="M959.72 108.68L974.51 222.39" stroke="#132e65" stroke-width="1.5"></path><path d="M959.72 108.68L1096.4 83.2" stroke="#132e65" stroke-width="1.5"></path><path d="M959.72 108.68L1092.56 193.7" stroke="#132e65" stroke-width="1.5"></path><path d="M959.72 108.68L824.74 260.4" stroke="#132e65" stroke-width="1.5"></path><path d="M959.72 108.68L1113.79 -90.24" stroke="#132e65" stroke-width="1.5"></path><path d="M974.51 222.39L974.51 222.39" stroke="#132e65" stroke-width="1.5"></path><path d="M974.51 222.39L1092.56 193.7" stroke="#132e65" stroke-width="1.5"></path><path d="M974.51 222.39L941.66 394.26" stroke="#132e65" stroke-width="1.5"></path><path d="M974.51 222.39L1096.4 83.2" stroke="#132e65" stroke-width="1.5"></path><path d="M941.66 394.26L941.66 394.26" stroke="#132e65" stroke-width="1.5"></path><path d="M941.66 394.26L987.85 507.19" stroke="#132e65" stroke-width="1.5"></path><path d="M941.66 394.26L1107.61 397.9" stroke="#132e65" stroke-width="1.5"></path><path d="M987.85 507.19L987.85 507.19" stroke="#132e65" stroke-width="1.5"></path><path d="M987.85 507.19L1136.89 532.75" stroke="#132e65" stroke-width="1.5"></path><path d="M987.85 507.19L1107.61 397.9" stroke="#132e65" stroke-width="1.5"></path><path d="M987.85 507.19L854.34 374.97" stroke="#132e65" stroke-width="1.5"></path><path d="M957.03 696.02L957.03 696.02" stroke="#132e65" stroke-width="1.5"></path><path d="M957.03 696.02L835.01 814.34" stroke="#132e65" stroke-width="1.5"></path><path d="M957.03 696.02L860.85 547.33" stroke="#132e65" stroke-width="1.5"></path><path d="M972.21 959.95L972.21 959.95" stroke="#132e65" stroke-width="1.5"></path><path d="M972.21 959.95L1141.52 982.01" stroke="#132e65" stroke-width="1.5"></path><path d="M1113.79 -90.24L1113.79 -90.24" stroke="#132e65" stroke-width="1.5"></path><path d="M1113.79 -90.24L1247.27 -74.75" stroke="#132e65" stroke-width="1.5"></path><path d="M1113.79 -90.24L1096.4 83.2" stroke="#132e65" stroke-width="1.5"></path><path d="M1096.4 83.2L1096.4 83.2" stroke="#132e65" stroke-width="1.5"></path><path d="M1096.4 83.2L1092.56 193.7" stroke="#132e65" stroke-width="1.5"></path><path d="M1092.56 193.7L1092.56 193.7" stroke="#132e65" stroke-width="1.5"></path><path d="M1107.61 397.9L1107.61 397.9" stroke="#132e65" stroke-width="1.5"></path><path d="M1107.61 397.9L1136.89 532.75" stroke="#132e65" stroke-width="1.5"></path><path d="M1107.61 397.9L1266.85 393.11" stroke="#132e65" stroke-width="1.5"></path><path d="M1107.61 397.9L1246.02 532.39" stroke="#132e65" stroke-width="1.5"></path><path d="M1136.89 532.75L1136.89 532.75" stroke="#132e65" stroke-width="1.5"></path><path d="M1136.89 532.75L1246.02 532.39" stroke="#132e65" stroke-width="1.5"></path><path d="M1145.95 664.87L1145.95 664.87" stroke="#132e65" stroke-width="1.5"></path><path d="M1145.95 664.87L1264.79 639.98" stroke="#132e65" stroke-width="1.5"></path><path d="M1145.95 664.87L1109.06 789.22" stroke="#132e65" stroke-width="1.5"></path><path d="M1145.95 664.87L1136.89 532.75" stroke="#132e65" stroke-width="1.5"></path><path d="M1109.06 789.22L1109.06 789.22" stroke="#132e65" stroke-width="1.5"></path><path d="M1109.06 789.22L1267.72 819.61" stroke="#132e65" stroke-width="1.5"></path><path d="M1141.52 982.01L1141.52 982.01" stroke="#132e65" stroke-width="1.5"></path><path d="M1141.52 982.01L1109.06 789.22" stroke="#132e65" stroke-width="1.5"></path><path d="M1141.52 982.01L1267.72 819.61" stroke="#132e65" stroke-width="1.5"></path><path d="M1141.52 982.01L1145.95 664.87" stroke="#132e65" stroke-width="1.5"></path><path d="M1141.52 982.01L957.03 696.02" stroke="#132e65" stroke-width="1.5"></path><path d="M1141.52 982.01L835.01 814.34" stroke="#132e65" stroke-width="1.5"></path><path d="M1247.27 -74.75L1247.27 -74.75" stroke="#132e65" stroke-width="1.5"></path><path d="M1247.27 -74.75L1409.55 -75.03" stroke="#132e65" stroke-width="1.5"></path><path d="M1247.27 -74.75L1260.71 94.45" stroke="#132e65" stroke-width="1.5"></path><path d="M1247.27 -74.75L1397.69 75.36" stroke="#132e65" stroke-width="1.5"></path><path d="M1260.71 94.45L1260.71 94.45" stroke="#132e65" stroke-width="1.5"></path><path d="M1260.71 94.45L1251.14 223.84" stroke="#132e65" stroke-width="1.5"></path><path d="M1260.71 94.45L1397.69 75.36" stroke="#132e65" stroke-width="1.5"></path><path d="M1260.71 94.45L1096.4 83.2" stroke="#132e65" stroke-width="1.5"></path><path d="M1251.14 223.84L1251.14 223.84" stroke="#132e65" stroke-width="1.5"></path><path d="M1251.14 223.84L1395.56 228.83" stroke="#132e65" stroke-width="1.5"></path><path d="M1251.14 223.84L1092.56 193.7" stroke="#132e65" stroke-width="1.5"></path><path d="M1251.14 223.84L1266.85 393.11" stroke="#132e65" stroke-width="1.5"></path><path d="M1266.85 393.11L1266.85 393.11" stroke="#132e65" stroke-width="1.5"></path><path d="M1266.85 393.11L1246.02 532.39" stroke="#132e65" stroke-width="1.5"></path><path d="M1246.02 532.39L1246.02 532.39" stroke="#132e65" stroke-width="1.5"></path><path d="M1246.02 532.39L1264.79 639.98" stroke="#132e65" stroke-width="1.5"></path><path d="M1246.02 532.39L1145.95 664.87" stroke="#132e65" stroke-width="1.5"></path><path d="M1246.02 532.39L1418.05 495.66" stroke="#132e65" stroke-width="1.5"></path><path d="M1264.79 639.98L1264.79 639.98" stroke="#132e65" stroke-width="1.5"></path><path d="M1264.79 639.98L1402.73 643.34" stroke="#132e65" stroke-width="1.5"></path><path d="M1264.79 639.98L1136.89 532.75" stroke="#132e65" stroke-width="1.5"></path><path d="M1267.72 819.61L1267.72 819.61" stroke="#132e65" stroke-width="1.5"></path><path d="M1267.72 819.61L1264.79 639.98" stroke="#132e65" stroke-width="1.5"></path><path d="M1267.72 819.61L1145.95 664.87" stroke="#132e65" stroke-width="1.5"></path><path d="M1267.72 819.61L1402.73 643.34" stroke="#132e65" stroke-width="1.5"></path><path d="M1409.55 -75.03L1409.55 -75.03" stroke="#132e65" stroke-width="1.5"></path><path d="M1409.55 -75.03L1397.69 75.36" stroke="#132e65" stroke-width="1.5"></path><path d="M1397.69 75.36L1397.69 75.36" stroke="#132e65" stroke-width="1.5"></path><path d="M1397.69 75.36L1395.56 228.83" stroke="#132e65" stroke-width="1.5"></path><path d="M1395.56 228.83L1395.56 228.83" stroke="#132e65" stroke-width="1.5"></path><path d="M1395.56 228.83L1424.61 356.04" stroke="#132e65" stroke-width="1.5"></path><path d="M1424.61 356.04L1424.61 356.04" stroke="#132e65" stroke-width="1.5"></path><path d="M1424.61 356.04L1545.83 361.24" stroke="#132e65" stroke-width="1.5"></path><path d="M1424.61 356.04L1418.05 495.66" stroke="#132e65" stroke-width="1.5"></path><path d="M1424.61 356.04L1266.85 393.11" stroke="#132e65" stroke-width="1.5"></path><path d="M1424.61 356.04L1251.14 223.84" stroke="#132e65" stroke-width="1.5"></path><path d="M1424.61 356.04L1610.59 219.4" stroke="#132e65" stroke-width="1.5"></path><path d="M1418.05 495.66L1418.05 495.66" stroke="#132e65" stroke-width="1.5"></path><path d="M1402.73 643.34L1402.73 643.34" stroke="#132e65" stroke-width="1.5"></path><path d="M1402.73 643.34L1537.95 703.79" stroke="#132e65" stroke-width="1.5"></path><path d="M1603.03 -79.52L1603.03 -79.52" stroke="#132e65" stroke-width="1.5"></path><path d="M1603.03 -79.52L1707.27 -78.26" stroke="#132e65" stroke-width="1.5"></path><path d="M1603.03 -79.52L1590.2 43.47" stroke="#132e65" stroke-width="1.5"></path><path d="M1603.03 -79.52L1688.58 39.89" stroke="#132e65" stroke-width="1.5"></path><path d="M1603.03 -79.52L1409.55 -75.03" stroke="#132e65" stroke-width="1.5"></path><path d="M1590.2 43.47L1590.2 43.47" stroke="#132e65" stroke-width="1.5"></path><path d="M1590.2 43.47L1688.58 39.89" stroke="#132e65" stroke-width="1.5"></path><path d="M1610.59 219.4L1610.59 219.4" stroke="#132e65" stroke-width="1.5"></path><path d="M1610.59 219.4L1689.07 232.96" stroke="#132e65" stroke-width="1.5"></path><path d="M1610.59 219.4L1545.83 361.24" stroke="#132e65" stroke-width="1.5"></path><path d="M1610.59 219.4L1590.2 43.47" stroke="#132e65" stroke-width="1.5"></path><path d="M1610.59 219.4L1688.58 39.89" stroke="#132e65" stroke-width="1.5"></path><path d="M1610.59 219.4L1706.1 396.07" stroke="#132e65" stroke-width="1.5"></path><path d="M1545.83 361.24L1545.83 361.24" stroke="#132e65" stroke-width="1.5"></path><path d="M1545.83 361.24L1706.1 396.07" stroke="#132e65" stroke-width="1.5"></path><path d="M1554.01 547.43L1554.01 547.43" stroke="#132e65" stroke-width="1.5"></path><path d="M1554.01 547.43L1418.05 495.66" stroke="#132e65" stroke-width="1.5"></path><path d="M1554.01 547.43L1704.94 540.81" stroke="#132e65" stroke-width="1.5"></path><path d="M1554.01 547.43L1537.95 703.79" stroke="#132e65" stroke-width="1.5"></path><path d="M1554.01 547.43L1402.73 643.34" stroke="#132e65" stroke-width="1.5"></path><path d="M1554.01 547.43L1545.83 361.24" stroke="#132e65" stroke-width="1.5"></path><path d="M1537.95 703.79L1537.95 703.79" stroke="#132e65" stroke-width="1.5"></path><path d="M1537.95 703.79L1566.68 806.14" stroke="#132e65" stroke-width="1.5"></path><path d="M1566.68 806.14L1566.68 806.14" stroke="#132e65" stroke-width="1.5"></path><path d="M1566.68 806.14L1697.48 705.47" stroke="#132e65" stroke-width="1.5"></path><path d="M1561.49 972.09L1561.49 972.09" stroke="#132e65" stroke-width="1.5"></path><path d="M1561.49 972.09L1719.22 962.72" stroke="#132e65" stroke-width="1.5"></path><path d="M1561.49 972.09L1566.68 806.14" stroke="#132e65" stroke-width="1.5"></path><path d="M1561.49 972.09L1738.87 817.95" stroke="#132e65" stroke-width="1.5"></path><path d="M1707.27 -78.26L1707.27 -78.26" stroke="#132e65" stroke-width="1.5"></path><path d="M1707.27 -78.26L1688.58 39.89" stroke="#132e65" stroke-width="1.5"></path><path d="M1707.27 -78.26L1590.2 43.47" stroke="#132e65" stroke-width="1.5"></path><path d="M1707.27 -78.26L1409.55 -75.03" stroke="#132e65" stroke-width="1.5"></path><path d="M1707.27 -78.26L1689.07 232.96" stroke="#132e65" stroke-width="1.5"></path><path d="M1688.58 39.89L1688.58 39.89" stroke="#132e65" stroke-width="1.5"></path><path d="M1688.58 39.89L1689.07 232.96" stroke="#132e65" stroke-width="1.5"></path><path d="M1689.07 232.96L1689.07 232.96" stroke="#132e65" stroke-width="1.5"></path><path d="M1689.07 232.96L1706.1 396.07" stroke="#132e65" stroke-width="1.5"></path><path d="M1689.07 232.96L1545.83 361.24" stroke="#132e65" stroke-width="1.5"></path><path d="M1689.07 232.96L1590.2 43.47" stroke="#132e65" stroke-width="1.5"></path><path d="M1706.1 396.07L1706.1 396.07" stroke="#132e65" stroke-width="1.5"></path><path d="M1706.1 396.07L1704.94 540.81" stroke="#132e65" stroke-width="1.5"></path><path d="M1704.94 540.81L1704.94 540.81" stroke="#132e65" stroke-width="1.5"></path><path d="M1704.94 540.81L1697.48 705.47" stroke="#132e65" stroke-width="1.5"></path><path d="M1704.94 540.81L1537.95 703.79" stroke="#132e65" stroke-width="1.5"></path><path d="M1697.48 705.47L1697.48 705.47" stroke="#132e65" stroke-width="1.5"></path><path d="M1697.48 705.47L1738.87 817.95" stroke="#132e65" stroke-width="1.5"></path><path d="M1697.48 705.47L1537.95 703.79" stroke="#132e65" stroke-width="1.5"></path><path d="M1738.87 817.95L1738.87 817.95" stroke="#132e65" stroke-width="1.5"></path><path d="M1738.87 817.95L1719.22 962.72" stroke="#132e65" stroke-width="1.5"></path><path d="M1738.87 817.95L1566.68 806.14" stroke="#132e65" stroke-width="1.5"></path><path d="M1719.22 962.72L1719.22 962.72" stroke="#132e65" stroke-width="1.5"></path><path d="M1719.22 962.72L1566.68 806.14" stroke="#132e65" stroke-width="1.5"></path><path d="M1719.22 962.72L1697.48 705.47" stroke="#132e65" stroke-width="1.5"></path><path d="M1719.22 962.72L1537.95 703.79" stroke="#132e65" stroke-width="1.5"></path><path d="M1719.22 962.72L1704.94 540.81" stroke="#132e65" stroke-width="1.5"></path><circle r="5" cx="-98.41" cy="661.75" fill="#132e65"></circle><circle r="5" cx="-111.07" cy="834.01" fill="#132e65"></circle><circle r="5" cx="-72.65" cy="961.43" fill="#132e65"></circle><circle r="5" cx="71.32" cy="673.24" fill="#132e65"></circle><circle r="5" cx="82.12" cy="818.28" fill="#132e65"></circle><circle r="5" cx="58.7" cy="999.7" fill="#132e65"></circle><circle r="5" cx="218.69" cy="556.42" fill="#132e65"></circle><circle r="5" cx="244.87" cy="708.17" fill="#132e65"></circle><circle r="5" cx="223.87" cy="823.62" fill="#132e65"></circle><circle r="5" cx="241.1" cy="1001.22" fill="#132e65"></circle><circle r="5" cx="409.03" cy="500.49" fill="#132e65"></circle><circle r="5" cx="361.77" cy="702.47" fill="#132e65"></circle><circle r="5" cx="358.83" cy="816.94" fill="#132e65"></circle><circle r="5" cx="398.49" cy="966.42" fill="#132e65"></circle><circle r="5" cx="552.07" cy="657.29" fill="#132e65"></circle><circle r="5" cx="503.13" cy="853.68" fill="#132e65"></circle><circle r="5" cx="508.06" cy="967.47" fill="#132e65"></circle><circle r="5" cx="708.97" cy="358.38" fill="#132e65"></circle><circle r="5" cx="660.12" cy="515.89" fill="#132e65"></circle><circle r="5" cx="702.41" cy="646.3" fill="#132e65"></circle><circle r="5" cx="646.25" cy="799.56" fill="#132e65"></circle><circle r="5" cx="688.86" cy="975.83" fill="#132e65"></circle><circle r="5" cx="824.74" cy="260.4" fill="#132e65"></circle><circle r="5" cx="854.34" cy="374.97" fill="#132e65"></circle><circle r="5" cx="860.85" cy="547.33" fill="#132e65"></circle><circle r="5" cx="820.6" cy="687.25" fill="#132e65"></circle><circle r="5" cx="835.01" cy="814.34" fill="#132e65"></circle><circle r="5" cx="788.46" cy="969.56" fill="#132e65"></circle><circle r="5" cx="959.72" cy="108.68" fill="#132e65"></circle><circle r="5" cx="974.51" cy="222.39" fill="#132e65"></circle><circle r="5" cx="941.66" cy="394.26" fill="#132e65"></circle><circle r="5" cx="987.85" cy="507.19" fill="#132e65"></circle><circle r="5" cx="957.03" cy="696.02" fill="#132e65"></circle><circle r="5" cx="972.21" cy="959.95" fill="#132e65"></circle><circle r="5" cx="1113.79" cy="-90.24" fill="#132e65"></circle><circle r="5" cx="1096.4" cy="83.2" fill="#132e65"></circle><circle r="5" cx="1092.56" cy="193.7" fill="#132e65"></circle><circle r="5" cx="1107.61" cy="397.9" fill="#132e65"></circle><circle r="5" cx="1136.89" cy="532.75" fill="#132e65"></circle><circle r="5" cx="1145.95" cy="664.87" fill="#132e65"></circle><circle r="5" cx="1109.06" cy="789.22" fill="#132e65"></circle><circle r="5" cx="1141.52" cy="982.01" fill="#132e65"></circle><circle r="5" cx="1247.27" cy="-74.75" fill="#132e65"></circle><circle r="5" cx="1260.71" cy="94.45" fill="#132e65"></circle><circle r="5" cx="1251.14" cy="223.84" fill="#132e65"></circle><circle r="5" cx="1266.85" cy="393.11" fill="#132e65"></circle><circle r="5" cx="1246.02" cy="532.39" fill="#132e65"></circle><circle r="5" cx="1264.79" cy="639.98" fill="#132e65"></circle><circle r="5" cx="1267.72" cy="819.61" fill="#132e65"></circle><circle r="5" cx="1409.55" cy="-75.03" fill="#132e65"></circle><circle r="5" cx="1397.69" cy="75.36" fill="#132e65"></circle><circle r="5" cx="1395.56" cy="228.83" fill="#132e65"></circle><circle r="5" cx="1424.61" cy="356.04" fill="#132e65"></circle><circle r="5" cx="1418.05" cy="495.66" fill="#132e65"></circle><circle r="5" cx="1402.73" cy="643.34" fill="#132e65"></circle><circle r="5" cx="1603.03" cy="-79.52" fill="#132e65"></circle><circle r="5" cx="1590.2" cy="43.47" fill="#132e65"></circle><circle r="5" cx="1610.59" cy="219.4" fill="#132e65"></circle><circle r="5" cx="1545.83" cy="361.24" fill="#132e65"></circle><circle r="5" cx="1554.01" cy="547.43" fill="#132e65"></circle><circle r="5" cx="1537.95" cy="703.79" fill="#132e65"></circle><circle r="5" cx="1566.68" cy="806.14" fill="#132e65"></circle><circle r="5" cx="1561.49" cy="972.09" fill="#132e65"></circle><circle r="5" cx="1707.27" cy="-78.26" fill="#132e65"></circle><circle r="5" cx="1688.58" cy="39.89" fill="#132e65"></circle><circle r="5" cx="1689.07" cy="232.96" fill="#132e65"></circle><circle r="5" cx="1706.1" cy="396.07" fill="#132e65"></circle><circle r="5" cx="1704.94" cy="540.81" fill="#132e65"></circle><circle r="5" cx="1697.48" cy="705.47" fill="#132e65"></circle><circle r="5" cx="1738.87" cy="817.95" fill="#132e65"></circle><circle r="5" cx="1719.22" cy="962.72" fill="#132e65"></circle><path d="M-70.78 706.38L-70.78 706.38" stroke="hsl(228.5, 77.2%, 51.5%)" stroke-width="1.5"></path><path d="M-70.78 706.38L-84.06 804.67" stroke="hsl(228.5, 77.2%, 51.5%)" stroke-width="1.5"></path><path d="M-70.78 706.38L53.16 699.99" stroke="hsl(228.5, 77.2%, 51.5%)" stroke-width="1.5"></path><path d="M355.78 677.23L355.78 677.23" stroke="hsl(228.5, 77.2%, 51.5%)" stroke-width="1.5"></path><path d="M355.78 677.23L257.07 809.18" stroke="hsl(228.5, 77.2%, 51.5%)" stroke-width="1.5"></path><path d="M355.78 677.23L561.74 698.57" stroke="hsl(228.5, 77.2%, 51.5%)" stroke-width="1.5"></path><path d="M355.78 677.23L557.07 860.57" stroke="hsl(228.5, 77.2%, 51.5%)" stroke-width="1.5"></path><path d="M561.74 698.57L561.74 698.57" stroke="hsl(228.5, 77.2%, 51.5%)" stroke-width="1.5"></path><path d="M561.74 698.57L694.63 693.44" stroke="hsl(228.5, 77.2%, 51.5%)" stroke-width="1.5"></path><path d="M561.74 698.57L557.07 860.57" stroke="hsl(228.5, 77.2%, 51.5%)" stroke-width="1.5"></path><path d="M561.74 698.57L789.51 846.21" stroke="hsl(228.5, 77.2%, 51.5%)" stroke-width="1.5"></path><path d="M516.64 1012.22L516.64 1012.22" stroke="hsl(228.5, 77.2%, 51.5%)" stroke-width="1.5"></path><path d="M516.64 1012.22L557.07 860.57" stroke="hsl(228.5, 77.2%, 51.5%)" stroke-width="1.5"></path><path d="M694.63 693.44L694.63 693.44" stroke="hsl(228.5, 77.2%, 51.5%)" stroke-width="1.5"></path><path d="M694.63 693.44L836.83 666.43" stroke="hsl(228.5, 77.2%, 51.5%)" stroke-width="1.5"></path><path d="M694.63 693.44L789.51 846.21" stroke="hsl(228.5, 77.2%, 51.5%)" stroke-width="1.5"></path><path d="M694.63 693.44L557.07 860.57" stroke="hsl(228.5, 77.2%, 51.5%)" stroke-width="1.5"></path><path d="M694.63 693.44L857.36 499.02" stroke="hsl(228.5, 77.2%, 51.5%)" stroke-width="1.5"></path><path d="M694.63 693.44L686.4 952.8" stroke="hsl(228.5, 77.2%, 51.5%)" stroke-width="1.5"></path><path d="M1138.08 638.15L1138.08 638.15" stroke="hsl(228.5, 77.2%, 51.5%)" stroke-width="1.5"></path><path d="M1138.08 638.15L1271.93 680.13" stroke="hsl(228.5, 77.2%, 51.5%)" stroke-width="1.5"></path><path d="M1138.08 638.15L1155.39 488.54" stroke="hsl(228.5, 77.2%, 51.5%)" stroke-width="1.5"></path><path d="M1138.08 638.15L1119.66 789.02" stroke="hsl(228.5, 77.2%, 51.5%)" stroke-width="1.5"></path><path d="M1138.08 638.15L974.68 664.5" stroke="hsl(228.5, 77.2%, 51.5%)" stroke-width="1.5"></path><path d="M1138.08 638.15L1254.63 505.87" stroke="hsl(228.5, 77.2%, 51.5%)" stroke-width="1.5"></path><path d="M1138.08 638.15L985.73 521.49" stroke="hsl(228.5, 77.2%, 51.5%)" stroke-width="1.5"></path><path d="M1426.08 234.16L1426.08 234.16" stroke="hsl(228.5, 77.2%, 51.5%)" stroke-width="1.5"></path><path d="M1426.08 234.16L1402.62 350.37" stroke="hsl(228.5, 77.2%, 51.5%)" stroke-width="1.5"></path><path d="M1426.08 234.16L1283.91 246.85" stroke="hsl(228.5, 77.2%, 51.5%)" stroke-width="1.5"></path><path d="M1426.08 234.16L1458.15 90.94" stroke="hsl(228.5, 77.2%, 51.5%)" stroke-width="1.5"></path><path d="M1426.08 234.16L1604.47 203.63" stroke="hsl(228.5, 77.2%, 51.5%)" stroke-width="1.5"></path><path d="M1426.08 234.16L1576.5 359.96" stroke="hsl(228.5, 77.2%, 51.5%)" stroke-width="1.5"></path><path d="M1426.08 234.16L1568.63 81.05" stroke="hsl(228.5, 77.2%, 51.5%)" stroke-width="1.5"></path><path d="M-84.06 804.67L-84.06 804.67" stroke="hsl(228.5, 77.2%, 51.5%)" stroke-width="1.5"></path><path d="M-84.06 804.67L52.75 851.4" stroke="hsl(228.5, 77.2%, 51.5%)" stroke-width="1.5"></path><path d="M-84.06 804.67L53.16 699.99" stroke="hsl(228.5, 77.2%, 51.5%)" stroke-width="1.5"></path><path d="M-56.78 983.64L-56.78 983.64" stroke="hsl(228.5, 77.2%, 51.5%)" stroke-width="1.5"></path><path d="M-56.78 983.64L70.75 962.06" stroke="hsl(228.5, 77.2%, 51.5%)" stroke-width="1.5"></path><path d="M-56.78 983.64L52.75 851.4" stroke="hsl(228.5, 77.2%, 51.5%)" stroke-width="1.5"></path><path d="M-56.78 983.64L-84.06 804.67" stroke="hsl(228.5, 77.2%, 51.5%)" stroke-width="1.5"></path><path d="M-56.78 983.64L219.29 990.86" stroke="hsl(228.5, 77.2%, 51.5%)" stroke-width="1.5"></path><path d="M53.16 699.99L53.16 699.99" stroke="hsl(228.5, 77.2%, 51.5%)" stroke-width="1.5"></path><path d="M53.16 699.99L52.75 851.4" stroke="hsl(228.5, 77.2%, 51.5%)" stroke-width="1.5"></path><path d="M52.75 851.4L52.75 851.4" stroke="hsl(228.5, 77.2%, 51.5%)" stroke-width="1.5"></path><path d="M52.75 851.4L70.75 962.06" stroke="hsl(228.5, 77.2%, 51.5%)" stroke-width="1.5"></path><path d="M52.75 851.4L-70.78 706.38" stroke="hsl(228.5, 77.2%, 51.5%)" stroke-width="1.5"></path><path d="M70.75 962.06L70.75 962.06" stroke="hsl(228.5, 77.2%, 51.5%)" stroke-width="1.5"></path><path d="M257.07 809.18L257.07 809.18" stroke="hsl(228.5, 77.2%, 51.5%)" stroke-width="1.5"></path><path d="M257.07 809.18L219.29 990.86" stroke="hsl(228.5, 77.2%, 51.5%)" stroke-width="1.5"></path><path d="M257.07 809.18L352.57 980.46" stroke="hsl(228.5, 77.2%, 51.5%)" stroke-width="1.5"></path><path d="M257.07 809.18L52.75 851.4" stroke="hsl(228.5, 77.2%, 51.5%)" stroke-width="1.5"></path><path d="M257.07 809.18L53.16 699.99" stroke="hsl(228.5, 77.2%, 51.5%)" stroke-width="1.5"></path><path d="M219.29 990.86L219.29 990.86" stroke="hsl(228.5, 77.2%, 51.5%)" stroke-width="1.5"></path><path d="M219.29 990.86L352.57 980.46" stroke="hsl(228.5, 77.2%, 51.5%)" stroke-width="1.5"></path><path d="M219.29 990.86L70.75 962.06" stroke="hsl(228.5, 77.2%, 51.5%)" stroke-width="1.5"></path><path d="M219.29 990.86L52.75 851.4" stroke="hsl(228.5, 77.2%, 51.5%)" stroke-width="1.5"></path><path d="M352.57 980.46L352.57 980.46" stroke="hsl(228.5, 77.2%, 51.5%)" stroke-width="1.5"></path><path d="M352.57 980.46L516.64 1012.22" stroke="hsl(228.5, 77.2%, 51.5%)" stroke-width="1.5"></path><path d="M352.57 980.46L557.07 860.57" stroke="hsl(228.5, 77.2%, 51.5%)" stroke-width="1.5"></path><path d="M352.57 980.46L70.75 962.06" stroke="hsl(228.5, 77.2%, 51.5%)" stroke-width="1.5"></path><path d="M352.57 980.46L355.78 677.23" stroke="hsl(228.5, 77.2%, 51.5%)" stroke-width="1.5"></path><path d="M557.07 860.57L557.07 860.57" stroke="hsl(228.5, 77.2%, 51.5%)" stroke-width="1.5"></path><path d="M557.07 860.57L686.4 952.8" stroke="hsl(228.5, 77.2%, 51.5%)" stroke-width="1.5"></path><path d="M686.4 952.8L686.4 952.8" stroke="hsl(228.5, 77.2%, 51.5%)" stroke-width="1.5"></path><path d="M686.4 952.8L789.51 846.21" stroke="hsl(228.5, 77.2%, 51.5%)" stroke-width="1.5"></path><path d="M686.4 952.8L860.23 957.22" stroke="hsl(228.5, 77.2%, 51.5%)" stroke-width="1.5"></path><path d="M686.4 952.8L516.64 1012.22" stroke="hsl(228.5, 77.2%, 51.5%)" stroke-width="1.5"></path><path d="M857.36 499.02L857.36 499.02" stroke="hsl(228.5, 77.2%, 51.5%)" stroke-width="1.5"></path><path d="M857.36 499.02L985.73 521.49" stroke="hsl(228.5, 77.2%, 51.5%)" stroke-width="1.5"></path><path d="M857.36 499.02L836.83 666.43" stroke="hsl(228.5, 77.2%, 51.5%)" stroke-width="1.5"></path><path d="M857.36 499.02L974.68 664.5" stroke="hsl(228.5, 77.2%, 51.5%)" stroke-width="1.5"></path><path d="M836.83 666.43L836.83 666.43" stroke="hsl(228.5, 77.2%, 51.5%)" stroke-width="1.5"></path><path d="M836.83 666.43L974.68 664.5" stroke="hsl(228.5, 77.2%, 51.5%)" stroke-width="1.5"></path><path d="M789.51 846.21L789.51 846.21" stroke="hsl(228.5, 77.2%, 51.5%)" stroke-width="1.5"></path><path d="M789.51 846.21L860.23 957.22" stroke="hsl(228.5, 77.2%, 51.5%)" stroke-width="1.5"></path><path d="M860.23 957.22L860.23 957.22" stroke="hsl(228.5, 77.2%, 51.5%)" stroke-width="1.5"></path><path d="M860.23 957.22L1001.52 996.28" stroke="hsl(228.5, 77.2%, 51.5%)" stroke-width="1.5"></path><path d="M860.23 957.22L1108.63 954.68" stroke="hsl(228.5, 77.2%, 51.5%)" stroke-width="1.5"></path><path d="M860.23 957.22L836.83 666.43" stroke="hsl(228.5, 77.2%, 51.5%)" stroke-width="1.5"></path><path d="M860.23 957.22L1119.66 789.02" stroke="hsl(228.5, 77.2%, 51.5%)" stroke-width="1.5"></path><path d="M985.73 521.49L985.73 521.49" stroke="hsl(228.5, 77.2%, 51.5%)" stroke-width="1.5"></path><path d="M985.73 521.49L974.68 664.5" stroke="hsl(228.5, 77.2%, 51.5%)" stroke-width="1.5"></path><path d="M985.73 521.49L1155.39 488.54" stroke="hsl(228.5, 77.2%, 51.5%)" stroke-width="1.5"></path><path d="M985.73 521.49L1100.85 382.43" stroke="hsl(228.5, 77.2%, 51.5%)" stroke-width="1.5"></path><path d="M985.73 521.49L836.83 666.43" stroke="hsl(228.5, 77.2%, 51.5%)" stroke-width="1.5"></path><path d="M974.68 664.5L974.68 664.5" stroke="hsl(228.5, 77.2%, 51.5%)" stroke-width="1.5"></path><path d="M1001.52 996.28L1001.52 996.28" stroke="hsl(228.5, 77.2%, 51.5%)" stroke-width="1.5"></path><path d="M1001.52 996.28L1108.63 954.68" stroke="hsl(228.5, 77.2%, 51.5%)" stroke-width="1.5"></path><path d="M1001.52 996.28L1119.66 789.02" stroke="hsl(228.5, 77.2%, 51.5%)" stroke-width="1.5"></path><path d="M1001.52 996.28L1245.3 987.73" stroke="hsl(228.5, 77.2%, 51.5%)" stroke-width="1.5"></path><path d="M1001.52 996.28L789.51 846.21" stroke="hsl(228.5, 77.2%, 51.5%)" stroke-width="1.5"></path><path d="M1001.52 996.28L1247.88 832.25" stroke="hsl(228.5, 77.2%, 51.5%)" stroke-width="1.5"></path><path d="M1100.85 382.43L1100.85 382.43" stroke="hsl(228.5, 77.2%, 51.5%)" stroke-width="1.5"></path><path d="M1100.85 382.43L1155.39 488.54" stroke="hsl(228.5, 77.2%, 51.5%)" stroke-width="1.5"></path><path d="M1100.85 382.43L1254.63 505.87" stroke="hsl(228.5, 77.2%, 51.5%)" stroke-width="1.5"></path><path d="M1100.85 382.43L1283.91 246.85" stroke="hsl(228.5, 77.2%, 51.5%)" stroke-width="1.5"></path><path d="M1155.39 488.54L1155.39 488.54" stroke="hsl(228.5, 77.2%, 51.5%)" stroke-width="1.5"></path><path d="M1155.39 488.54L1254.63 505.87" stroke="hsl(228.5, 77.2%, 51.5%)" stroke-width="1.5"></path><path d="M1119.66 789.02L1119.66 789.02" stroke="hsl(228.5, 77.2%, 51.5%)" stroke-width="1.5"></path><path d="M1119.66 789.02L1247.88 832.25" stroke="hsl(228.5, 77.2%, 51.5%)" stroke-width="1.5"></path><path d="M1108.63 954.68L1108.63 954.68" stroke="hsl(228.5, 77.2%, 51.5%)" stroke-width="1.5"></path><path d="M1108.63 954.68L1245.3 987.73" stroke="hsl(228.5, 77.2%, 51.5%)" stroke-width="1.5"></path><path d="M1260.66 -108.06L1260.66 -108.06" stroke="hsl(228.5, 77.2%, 51.5%)" stroke-width="1.5"></path><path d="M1260.66 -108.06L1425.7 -49.72" stroke="hsl(228.5, 77.2%, 51.5%)" stroke-width="1.5"></path><path d="M1260.66 -108.06L1458.15 90.94" stroke="hsl(228.5, 77.2%, 51.5%)" stroke-width="1.5"></path><path d="M1283.91 246.85L1283.91 246.85" stroke="hsl(228.5, 77.2%, 51.5%)" stroke-width="1.5"></path><path d="M1283.91 246.85L1402.62 350.37" stroke="hsl(228.5, 77.2%, 51.5%)" stroke-width="1.5"></path><path d="M1254.63 505.87L1254.63 505.87" stroke="hsl(228.5, 77.2%, 51.5%)" stroke-width="1.5"></path><path d="M1254.63 505.87L1394.18 505.37" stroke="hsl(228.5, 77.2%, 51.5%)" stroke-width="1.5"></path><path d="M1254.63 505.87L1271.93 680.13" stroke="hsl(228.5, 77.2%, 51.5%)" stroke-width="1.5"></path><path d="M1254.63 505.87L1402.62 350.37" stroke="hsl(228.5, 77.2%, 51.5%)" stroke-width="1.5"></path><path d="M1271.93 680.13L1271.93 680.13" stroke="hsl(228.5, 77.2%, 51.5%)" stroke-width="1.5"></path><path d="M1271.93 680.13L1401.88 670.16" stroke="hsl(228.5, 77.2%, 51.5%)" stroke-width="1.5"></path><path d="M1271.93 680.13L1247.88 832.25" stroke="hsl(228.5, 77.2%, 51.5%)" stroke-width="1.5"></path><path d="M1271.93 680.13L1119.66 789.02" stroke="hsl(228.5, 77.2%, 51.5%)" stroke-width="1.5"></path><path d="M1271.93 680.13L1394.18 505.37" stroke="hsl(228.5, 77.2%, 51.5%)" stroke-width="1.5"></path><path d="M1247.88 832.25L1247.88 832.25" stroke="hsl(228.5, 77.2%, 51.5%)" stroke-width="1.5"></path><path d="M1247.88 832.25L1245.3 987.73" stroke="hsl(228.5, 77.2%, 51.5%)" stroke-width="1.5"></path><path d="M1247.88 832.25L1108.63 954.68" stroke="hsl(228.5, 77.2%, 51.5%)" stroke-width="1.5"></path><path d="M1247.88 832.25L1440.74 825.77" stroke="hsl(228.5, 77.2%, 51.5%)" stroke-width="1.5"></path><path d="M1247.88 832.25L1138.08 638.15" stroke="hsl(228.5, 77.2%, 51.5%)" stroke-width="1.5"></path><path d="M1245.3 987.73L1245.3 987.73" stroke="hsl(228.5, 77.2%, 51.5%)" stroke-width="1.5"></path><path d="M1245.3 987.73L1410.28 1006.11" stroke="hsl(228.5, 77.2%, 51.5%)" stroke-width="1.5"></path><path d="M1425.7 -49.72L1425.7 -49.72" stroke="hsl(228.5, 77.2%, 51.5%)" stroke-width="1.5"></path><path d="M1425.7 -49.72L1555.39 -37.78" stroke="hsl(228.5, 77.2%, 51.5%)" stroke-width="1.5"></path><path d="M1425.7 -49.72L1458.15 90.94" stroke="hsl(228.5, 77.2%, 51.5%)" stroke-width="1.5"></path><path d="M1458.15 90.94L1458.15 90.94" stroke="hsl(228.5, 77.2%, 51.5%)" stroke-width="1.5"></path><path d="M1458.15 90.94L1568.63 81.05" stroke="hsl(228.5, 77.2%, 51.5%)" stroke-width="1.5"></path><path d="M1402.62 350.37L1402.62 350.37" stroke="hsl(228.5, 77.2%, 51.5%)" stroke-width="1.5"></path><path d="M1402.62 350.37L1394.18 505.37" stroke="hsl(228.5, 77.2%, 51.5%)" stroke-width="1.5"></path><path d="M1402.62 350.37L1576.5 359.96" stroke="hsl(228.5, 77.2%, 51.5%)" stroke-width="1.5"></path><path d="M1394.18 505.37L1394.18 505.37" stroke="hsl(228.5, 77.2%, 51.5%)" stroke-width="1.5"></path><path d="M1394.18 505.37L1557.56 517.13" stroke="hsl(228.5, 77.2%, 51.5%)" stroke-width="1.5"></path><path d="M1394.18 505.37L1401.88 670.16" stroke="hsl(228.5, 77.2%, 51.5%)" stroke-width="1.5"></path><path d="M1401.88 670.16L1401.88 670.16" stroke="hsl(228.5, 77.2%, 51.5%)" stroke-width="1.5"></path><path d="M1401.88 670.16L1542.41 693.73" stroke="hsl(228.5, 77.2%, 51.5%)" stroke-width="1.5"></path><path d="M1401.88 670.16L1440.74 825.77" stroke="hsl(228.5, 77.2%, 51.5%)" stroke-width="1.5"></path><path d="M1401.88 670.16L1564.47 805.27" stroke="hsl(228.5, 77.2%, 51.5%)" stroke-width="1.5"></path><path d="M1401.88 670.16L1557.56 517.13" stroke="hsl(228.5, 77.2%, 51.5%)" stroke-width="1.5"></path><path d="M1440.74 825.77L1440.74 825.77" stroke="hsl(228.5, 77.2%, 51.5%)" stroke-width="1.5"></path><path d="M1440.74 825.77L1564.47 805.27" stroke="hsl(228.5, 77.2%, 51.5%)" stroke-width="1.5"></path><path d="M1440.74 825.77L1542.41 693.73" stroke="hsl(228.5, 77.2%, 51.5%)" stroke-width="1.5"></path><path d="M1440.74 825.77L1410.28 1006.11" stroke="hsl(228.5, 77.2%, 51.5%)" stroke-width="1.5"></path><path d="M1410.28 1006.11L1410.28 1006.11" stroke="hsl(228.5, 77.2%, 51.5%)" stroke-width="1.5"></path><path d="M1410.28 1006.11L1574.99 1006.59" stroke="hsl(228.5, 77.2%, 51.5%)" stroke-width="1.5"></path><path d="M1555.39 -37.78L1555.39 -37.78" stroke="hsl(228.5, 77.2%, 51.5%)" stroke-width="1.5"></path><path d="M1555.39 -37.78L1568.63 81.05" stroke="hsl(228.5, 77.2%, 51.5%)" stroke-width="1.5"></path><path d="M1555.39 -37.78L1701.36 -56.27" stroke="hsl(228.5, 77.2%, 51.5%)" stroke-width="1.5"></path><path d="M1568.63 81.05L1568.63 81.05" stroke="hsl(228.5, 77.2%, 51.5%)" stroke-width="1.5"></path><path d="M1568.63 81.05L1604.47 203.63" stroke="hsl(228.5, 77.2%, 51.5%)" stroke-width="1.5"></path><path d="M1604.47 203.63L1604.47 203.63" stroke="hsl(228.5, 77.2%, 51.5%)" stroke-width="1.5"></path><path d="M1604.47 203.63L1726.61 224.1" stroke="hsl(228.5, 77.2%, 51.5%)" stroke-width="1.5"></path><path d="M1604.47 203.63L1576.5 359.96" stroke="hsl(228.5, 77.2%, 51.5%)" stroke-width="1.5"></path><path d="M1604.47 203.63L1749.75 106.05" stroke="hsl(228.5, 77.2%, 51.5%)" stroke-width="1.5"></path><path d="M1576.5 359.96L1576.5 359.96" stroke="hsl(228.5, 77.2%, 51.5%)" stroke-width="1.5"></path><path d="M1576.5 359.96L1734.21 369.95" stroke="hsl(228.5, 77.2%, 51.5%)" stroke-width="1.5"></path><path d="M1576.5 359.96L1557.56 517.13" stroke="hsl(228.5, 77.2%, 51.5%)" stroke-width="1.5"></path><path d="M1576.5 359.96L1726.61 224.1" stroke="hsl(228.5, 77.2%, 51.5%)" stroke-width="1.5"></path><path d="M1557.56 517.13L1557.56 517.13" stroke="hsl(228.5, 77.2%, 51.5%)" stroke-width="1.5"></path><path d="M1557.56 517.13L1702.39 523.9" stroke="hsl(228.5, 77.2%, 51.5%)" stroke-width="1.5"></path><path d="M1542.41 693.73L1542.41 693.73" stroke="hsl(228.5, 77.2%, 51.5%)" stroke-width="1.5"></path><path d="M1542.41 693.73L1564.47 805.27" stroke="hsl(228.5, 77.2%, 51.5%)" stroke-width="1.5"></path><path d="M1542.41 693.73L1704.42 707.8" stroke="hsl(228.5, 77.2%, 51.5%)" stroke-width="1.5"></path><path d="M1564.47 805.27L1564.47 805.27" stroke="hsl(228.5, 77.2%, 51.5%)" stroke-width="1.5"></path><path d="M1564.47 805.27L1695.03 819.26" stroke="hsl(228.5, 77.2%, 51.5%)" stroke-width="1.5"></path><path d="M1574.99 1006.59L1574.99 1006.59" stroke="hsl(228.5, 77.2%, 51.5%)" stroke-width="1.5"></path><path d="M1574.99 1006.59L1758.45 985.82" stroke="hsl(228.5, 77.2%, 51.5%)" stroke-width="1.5"></path><path d="M1574.99 1006.59L1564.47 805.27" stroke="hsl(228.5, 77.2%, 51.5%)" stroke-width="1.5"></path><path d="M1574.99 1006.59L1695.03 819.26" stroke="hsl(228.5, 77.2%, 51.5%)" stroke-width="1.5"></path><path d="M1574.99 1006.59L1440.74 825.77" stroke="hsl(228.5, 77.2%, 51.5%)" stroke-width="1.5"></path><path d="M1701.36 -56.27L1701.36 -56.27" stroke="hsl(228.5, 77.2%, 51.5%)" stroke-width="1.5"></path><path d="M1701.36 -56.27L1749.75 106.05" stroke="hsl(228.5, 77.2%, 51.5%)" stroke-width="1.5"></path><path d="M1701.36 -56.27L1568.63 81.05" stroke="hsl(228.5, 77.2%, 51.5%)" stroke-width="1.5"></path><path d="M1701.36 -56.27L1425.7 -49.72" stroke="hsl(228.5, 77.2%, 51.5%)" stroke-width="1.5"></path><path d="M1701.36 -56.27L1604.47 203.63" stroke="hsl(228.5, 77.2%, 51.5%)" stroke-width="1.5"></path><path d="M1749.75 106.05L1749.75 106.05" stroke="hsl(228.5, 77.2%, 51.5%)" stroke-width="1.5"></path><path d="M1749.75 106.05L1726.61 224.1" stroke="hsl(228.5, 77.2%, 51.5%)" stroke-width="1.5"></path><path d="M1726.61 224.1L1726.61 224.1" stroke="hsl(228.5, 77.2%, 51.5%)" stroke-width="1.5"></path><path d="M1726.61 224.1L1734.21 369.95" stroke="hsl(228.5, 77.2%, 51.5%)" stroke-width="1.5"></path><path d="M1734.21 369.95L1734.21 369.95" stroke="hsl(228.5, 77.2%, 51.5%)" stroke-width="1.5"></path><path d="M1734.21 369.95L1702.39 523.9" stroke="hsl(228.5, 77.2%, 51.5%)" stroke-width="1.5"></path><path d="M1734.21 369.95L1604.47 203.63" stroke="hsl(228.5, 77.2%, 51.5%)" stroke-width="1.5"></path><path d="M1702.39 523.9L1702.39 523.9" stroke="hsl(228.5, 77.2%, 51.5%)" stroke-width="1.5"></path><path d="M1704.42 707.8L1704.42 707.8" stroke="hsl(228.5, 77.2%, 51.5%)" stroke-width="1.5"></path><path d="M1704.42 707.8L1695.03 819.26" stroke="hsl(228.5, 77.2%, 51.5%)" stroke-width="1.5"></path><path d="M1704.42 707.8L1564.47 805.27" stroke="hsl(228.5, 77.2%, 51.5%)" stroke-width="1.5"></path><path d="M1704.42 707.8L1702.39 523.9" stroke="hsl(228.5, 77.2%, 51.5%)" stroke-width="1.5"></path><path d="M1704.42 707.8L1557.56 517.13" stroke="hsl(228.5, 77.2%, 51.5%)" stroke-width="1.5"></path><path d="M1704.42 707.8L1758.45 985.82" stroke="hsl(228.5, 77.2%, 51.5%)" stroke-width="1.5"></path><path d="M1695.03 819.26L1695.03 819.26" stroke="hsl(228.5, 77.2%, 51.5%)" stroke-width="1.5"></path><path d="M1758.45 985.82L1758.45 985.82" stroke="hsl(228.5, 77.2%, 51.5%)" stroke-width="1.5"></path><path d="M1758.45 985.82L1695.03 819.26" stroke="hsl(228.5, 77.2%, 51.5%)" stroke-width="1.5"></path><path d="M1758.45 985.82L1564.47 805.27" stroke="hsl(228.5, 77.2%, 51.5%)" stroke-width="1.5"></path><circle r="25" cx="-70.78" cy="706.38" fill="url(#SvgjsRadialGradient1770)"></circle><circle r="25" cx="355.78" cy="677.23" fill="url(#SvgjsRadialGradient1770)"></circle><circle r="25" cx="561.74" cy="698.57" fill="url(#SvgjsRadialGradient1770)"></circle><circle r="25" cx="516.64" cy="1012.22" fill="url(#SvgjsRadialGradient1770)"></circle><circle r="25" cx="694.63" cy="693.44" fill="url(#SvgjsRadialGradient1770)"></circle><circle r="25" cx="1138.08" cy="638.15" fill="url(#SvgjsRadialGradient1770)"></circle><circle r="25" cx="1426.08" cy="234.16" fill="url(#SvgjsRadialGradient1770)"></circle><circle r="5" cx="-84.06" cy="804.67" fill="#8b9ad9"></circle><circle r="5" cx="-56.78" cy="983.64" fill="#8b9ad9"></circle><circle r="5" cx="53.16" cy="699.99" fill="#8b9ad9"></circle><circle r="5" cx="52.75" cy="851.4" fill="#8b9ad9"></circle><circle r="5" cx="70.75" cy="962.06" fill="#8b9ad9"></circle><circle r="5" cx="257.07" cy="809.18" fill="#8b9ad9"></circle><circle r="5" cx="219.29" cy="990.86" fill="#8b9ad9"></circle><circle r="5" cx="352.57" cy="980.46" fill="#8b9ad9"></circle><circle r="5" cx="557.07" cy="860.57" fill="#8b9ad9"></circle><circle r="5" cx="686.4" cy="952.8" fill="#8b9ad9"></circle><circle r="5" cx="857.36" cy="499.02" fill="#8b9ad9"></circle><circle r="5" cx="836.83" cy="666.43" fill="#8b9ad9"></circle><circle r="5" cx="789.51" cy="846.21" fill="#8b9ad9"></circle><circle r="5" cx="860.23" cy="957.22" fill="#8b9ad9"></circle><circle r="5" cx="985.73" cy="521.49" fill="#8b9ad9"></circle><circle r="5" cx="974.68" cy="664.5" fill="#8b9ad9"></circle><circle r="5" cx="1001.52" cy="996.28" fill="#8b9ad9"></circle><circle r="5" cx="1100.85" cy="382.43" fill="#8b9ad9"></circle><circle r="5" cx="1155.39" cy="488.54" fill="#8b9ad9"></circle><circle r="5" cx="1119.66" cy="789.02" fill="#8b9ad9"></circle><circle r="5" cx="1108.63" cy="954.68" fill="#8b9ad9"></circle><circle r="5" cx="1260.66" cy="-108.06" fill="#8b9ad9"></circle><circle r="5" cx="1283.91" cy="246.85" fill="#8b9ad9"></circle><circle r="5" cx="1254.63" cy="505.87" fill="#8b9ad9"></circle><circle r="5" cx="1271.93" cy="680.13" fill="#8b9ad9"></circle><circle r="5" cx="1247.88" cy="832.25" fill="#8b9ad9"></circle><circle r="5" cx="1245.3" cy="987.73" fill="#8b9ad9"></circle><circle r="5" cx="1425.7" cy="-49.72" fill="#8b9ad9"></circle><circle r="5" cx="1458.15" cy="90.94" fill="#8b9ad9"></circle><circle r="5" cx="1402.62" cy="350.37" fill="#8b9ad9"></circle><circle r="5" cx="1394.18" cy="505.37" fill="#8b9ad9"></circle><circle r="5" cx="1401.88" cy="670.16" fill="#8b9ad9"></circle><circle r="5" cx="1440.74" cy="825.77" fill="#8b9ad9"></circle><circle r="5" cx="1410.28" cy="1006.11" fill="#8b9ad9"></circle><circle r="5" cx="1555.39" cy="-37.78" fill="#8b9ad9"></circle><circle r="5" cx="1568.63" cy="81.05" fill="#8b9ad9"></circle><circle r="5" cx="1604.47" cy="203.63" fill="#8b9ad9"></circle><circle r="5" cx="1576.5" cy="359.96" fill="#8b9ad9"></circle><circle r="5" cx="1557.56" cy="517.13" fill="#8b9ad9"></circle><circle r="5" cx="1542.41" cy="693.73" fill="#8b9ad9"></circle><circle r="5" cx="1564.47" cy="805.27" fill="#8b9ad9"></circle><circle r="5" cx="1574.99" cy="1006.59" fill="#8b9ad9"></circle><circle r="5" cx="1701.36" cy="-56.27" fill="#8b9ad9"></circle><circle r="5" cx="1749.75" cy="106.05" fill="#8b9ad9"></circle><circle r="5" cx="1726.61" cy="224.1" fill="#8b9ad9"></circle><circle r="5" cx="1734.21" cy="369.95" fill="#8b9ad9"></circle><circle r="5" cx="1702.39" cy="523.9" fill="#8b9ad9"></circle><circle r="5" cx="1704.42" cy="707.8" fill="#8b9ad9"></circle><circle r="5" cx="1695.03" cy="819.26" fill="#8b9ad9"></circle><circle r="5" cx="1758.45" cy="985.82" fill="#8b9ad9"></circle></g><defs><mask id="SvgjsMask1769"><rect width="1536" height="864" fill="#ffffff"></rect></mask><radialGradient id="SvgjsRadialGradient1770"><stop stop-color="#ffffff" offset="0.1"></stop><stop stop-color="#1735b3" offset="0.2"></stop><stop stop-color="rgba(23, 53, 179, 0)" offset="1"></stop></radialGradient></defs></svg>